<?xml version="1.0" standalone="no"?>
<!DOCTYPE svg PUBLIC "-//W3C//DTD SVG 20010904//EN"
 "http://www.w3.org/TR/2001/REC-SVG-20010904/DTD/svg10.dtd">
<svg version="1.0" xmlns="http://www.w3.org/2000/svg"
 width="802.000000pt" height="228.000000pt" viewBox="0 0 802.000000 228.000000"
 preserveAspectRatio="xMidYMid meet">

<g transform="translate(0.000000,228.000000) scale(0.100000,-0.100000)"
fill="#000000" stroke="none">
<path d="M470 2269 c-215 -31 -390 -188 -444 -396 -24 -91 -24 -1375 0 -1466
45 -175 172 -311 349 -374 l80 -28 3555 0 3555 0 80 28 c177 63 304 199 349
374 24 91 24 1375 0 1466 -45 175 -172 311 -349 374 l-80 28 -3520 1 c-1936 1
-3545 -2 -3575 -7z m6695 -544 c198 -351 197 -827 -1 -1180 -53 -94 -45 -90
-97 -58 -26 15 -47 31 -47 34 0 4 15 32 34 63 45 75 91 191 118 301 29 117 32
359 6 475 -24 108 -72 235 -123 324 l-44 77 47 29 c54 34 50 37 107 -65z
m-2041 58 l44 -28 -37 -65 c-197 -346 -197 -777 -1 -1110 17 -28 30 -53 30
-54 0 -2 -21 -16 -47 -31 -55 -33 -52 -35 -114 88 -143 282 -170 620 -72 931
26 84 130 296 145 296 4 0 28 -12 52 -27z m-4214 -560 l0 -563 274 0 274 0 4
-81 c2 -44 1 -83 -1 -85 -2 -2 -170 -4 -373 -4 l-368 0 0 650 0 651 95 -3 95
-3 0 -562z m940 -83 l0 -650 -95 0 -95 0 0 650 0 650 95 0 95 0 0 -650z m400
647 c0 -2 82 -224 181 -493 100 -269 186 -504 192 -521 6 -18 14 -33 18 -33 4
0 14 21 23 48 9 26 96 262 193 525 l178 477 100 -2 c60 -2 99 -7 98 -13 -1 -5
-91 -237 -201 -515 -110 -278 -223 -565 -251 -637 l-53 -133 -94 0 c-52 0 -94
2 -94 4 0 2 -109 284 -241 627 -133 343 -244 634 -246 647 -5 22 -4 22 96 22
55 0 101 -2 101 -3z m1960 -82 l0 -86 -292 1 c-161 1 -292 -1 -290 -4 1 -3 2
-87 2 -186 l0 -180 265 0 266 0 -3 -82 -3 -83 -265 -3 -265 -2 2 -211 2 -210
296 1 295 1 0 -86 0 -85 -395 0 -395 0 0 650 0 650 390 0 390 0 0 -85z m1278
-140 c1 -1 -15 -36 -37 -76 -67 -125 -86 -204 -86 -354 0 -148 19 -226 82
-348 20 -37 34 -69 32 -71 -2 -2 -23 -15 -46 -29 -48 -30 -46 -32 -96 68 -127
255 -120 558 20 800 l37 65 46 -27 c25 -14 46 -27 48 -28z m1354 -46 c70 -138
91 -226 91 -384 0 -101 -5 -148 -22 -210 -22 -82 -106 -265 -122 -265 -4 0
-28 12 -52 26 l-43 27 47 92 c64 125 83 214 77 363 -5 133 -34 235 -94 333
-19 31 -34 59 -34 62 0 10 84 57 95 54 6 -2 31 -46 57 -98z m-671 61 c75 -14
170 -61 223 -110 239 -220 177 -609 -119 -746 -255 -118 -559 35 -625 315 -55
234 105 484 343 536 77 17 110 18 178 5z"/>
<path d="M5960 1126 c0 -119 4 -187 11 -191 14 -9 324 169 324 186 0 16 -291
189 -317 189 -17 0 -18 -15 -18 -184z"/>
</g>
</svg>
